<?xml version="1.0" encoding="utf-8" standalone="no"?>
<!DOCTYPE svg PUBLIC "-//W3C//DTD SVG 1.1//EN" "http://www.w3.org/Graphics/SVG/1.1/DTD/svg11.dtd">
<svg width="297mm" height="420mm" viewBox="0 0 297 420" xmlns="http://www.w3.org/2000/svg" xmlns:xlink="http://www.w3.org/1999/xlink" version="1.1" style="stroke:black; fill:none; stroke-width:0.5pt; stroke-linejoin:round; text-anchor:middle" font-family="Helvetica, Arial, FreeSans, Sans, sans, sans-serif">

<g>

<rect x="13.5" y="75.0" width="30.0" height="30.0" fill="black" stroke="none" />

<rect x="13.5" y="135.0" width="30.0" height="30.0" fill="black" stroke="none" />

<rect x="13.5" y="195.0" width="30.0" height="30.0" fill="black" stroke="none" />

<rect x="13.5" y="255.0" width="30.0" height="30.0" fill="black" stroke="none" />

<rect x="13.5" y="315.0" width="30.0" height="30.0" fill="black" stroke="none" />

<rect x="43.5" y="105.0" width="30.0" height="30.0" fill="black" stroke="none" />

<rect x="43.5" y="165.0" width="30.0" height="30.0" fill="black" stroke="none" />

<rect x="43.5" y="225.0" width="30.0" height="30.0" fill="black" stroke="none" />

<rect x="43.5" y="285.0" width="30.0" height="30.0" fill="black" stroke="none" />

<rect x="73.5" y="75.0" width="30.0" height="30.0" fill="black" stroke="none" />

<rect x="73.5" y="135.0" width="30.0" height="30.0" fill="black" stroke="none" />

<rect x="73.5" y="195.0" width="30.0" height="30.0" fill="black" stroke="none" />

<rect x="73.5" y="255.0" width="30.0" height="30.0" fill="black" stroke="none" />

<rect x="73.5" y="315.0" width="30.0" height="30.0" fill="black" stroke="none" />

<rect x="103.5" y="105.0" width="30.0" height="30.0" fill="black" stroke="none" />

<rect x="103.5" y="165.0" width="30.0" height="30.0" fill="black" stroke="none" />

<rect x="103.5" y="225.0" width="30.0" height="30.0" fill="black" stroke="none" />

<rect x="103.5" y="285.0" width="30.0" height="30.0" fill="black" stroke="none" />

<rect x="133.5" y="75.0" width="30.0" height="30.0" fill="black" stroke="none" />

<rect x="133.5" y="135.0" width="30.0" height="30.0" fill="black" stroke="none" />

<rect x="133.5" y="195.0" width="30.0" height="30.0" fill="black" stroke="none" />

<rect x="133.5" y="255.0" width="30.0" height="30.0" fill="black" stroke="none" />

<rect x="133.5" y="315.0" width="30.0" height="30.0" fill="black" stroke="none" />

<rect x="163.5" y="105.0" width="30.0" height="30.0" fill="black" stroke="none" />

<rect x="163.5" y="165.0" width="30.0" height="30.0" fill="black" stroke="none" />

<rect x="163.5" y="225.0" width="30.0" height="30.0" fill="black" stroke="none" />

<rect x="163.5" y="285.0" width="30.0" height="30.0" fill="black" stroke="none" />

<rect x="193.5" y="75.0" width="30.0" height="30.0" fill="black" stroke="none" />

<rect x="193.5" y="135.0" width="30.0" height="30.0" fill="black" stroke="none" />

<rect x="193.5" y="195.0" width="30.0" height="30.0" fill="black" stroke="none" />

<rect x="193.5" y="255.0" width="30.0" height="30.0" fill="black" stroke="none" />

<rect x="193.5" y="315.0" width="30.0" height="30.0" fill="black" stroke="none" />

<rect x="223.5" y="105.0" width="30.0" height="30.0" fill="black" stroke="none" />

<rect x="223.5" y="165.0" width="30.0" height="30.0" fill="black" stroke="none" />

<rect x="223.5" y="225.0" width="30.0" height="30.0" fill="black" stroke="none" />

<rect x="223.5" y="285.0" width="30.0" height="30.0" fill="black" stroke="none" />

<rect x="253.5" y="75.0" width="30.0" height="30.0" fill="black" stroke="none" />

<rect x="253.5" y="135.0" width="30.0" height="30.0" fill="black" stroke="none" />

<rect x="253.5" y="195.0" width="30.0" height="30.0" fill="black" stroke="none" />

<rect x="253.5" y="255.0" width="30.0" height="30.0" fill="black" stroke="none" />

<rect x="253.5" y="315.0" width="30.0" height="30.0" fill="black" stroke="none" />

</g>

</svg>

